HIERARCHY
ROOT Hips
{
	OFFSET 0.00000 0.00000 0.00000
	CHANNELS 6 Xposition Yposition Zposition Zrotation Yrotation Xrotation 
	JOINT LHipJoint
	{
		OFFSET 0 0 0
		CHANNELS 3 Zrotation Yrotation Xrotation
		JOINT LeftUpLeg
		{
			OFFSET 1.55766 -1.60504 1.11378
			CHANNELS 3 Zrotation Yrotation Xrotation
			JOINT LeftLeg
			{
				OFFSET 2.29047 -6.29302 0.00000
				CHANNELS 3 Zrotation Yrotation Xrotation
				JOINT LeftFoot
				{
					OFFSET 2.52265 -6.93093 0.00000
					CHANNELS 3 Zrotation Yrotation Xrotation
					JOINT LeftToeBase
					{
						OFFSET 0.17633 -0.48446 2.02656
						CHANNELS 3 Zrotation Yrotation Xrotation
						End Site
						{
							OFFSET 0.00000 -0.00000 1.04989
						}
					}
				}
			}
		}
	}
	JOINT RHipJoint
	{
		OFFSET 0 0 0
		CHANNELS 3 Zrotation Yrotation Xrotation
		JOINT RightUpLeg
		{
			OFFSET -1.48599 -1.60504 1.11378
			CHANNELS 3 Zrotation Yrotation Xrotation
			JOINT RightLeg
			{
				OFFSET -2.27280 -6.24448 0.00000
				CHANNELS 3 Zrotation Yrotation Xrotation
				JOINT RightFoot
				{
					OFFSET -2.50834 -6.89161 0.00000
					CHANNELS 3 Zrotation Yrotation Xrotation
					JOINT RightToeBase
					{
						OFFSET -0.26967 -0.74090 2.08741
						CHANNELS 3 Zrotation Yrotation Xrotation
						End Site
						{
							OFFSET -0.00000 -0.00000 1.10614
						}
					}
				}
			}
		}
	}
	JOINT LowerBack
	{
		OFFSET 0 0 0
		CHANNELS 3 Zrotation Yrotation Xrotation
		JOINT Spine
		{
			OFFSET 0.06481 2.02437 -0.08472
			CHANNELS 3 Zrotation Yrotation Xrotation
			JOINT Spine1
			{
				OFFSET 0.00015 1.96711 0.18069
				CHANNELS 3 Zrotation Yrotation Xrotation
				JOINT Neck
				{
					OFFSET 0 0 0
					CHANNELS 3 Zrotation Yrotation Xrotation
					JOINT Neck1
					{
						OFFSET -0.29961 1.68293 -0.13041
						CHANNELS 3 Zrotation Yrotation Xrotation
						JOINT Head
						{
							OFFSET 0.59697 1.61501 -0.14669
							CHANNELS 3 Zrotation Yrotation Xrotation
							End Site
							{
								OFFSET 0.22973 1.74906 -0.10148
							}
						}
					}
				}
				JOINT LeftShoulder
				{
					OFFSET 0 0 0
					CHANNELS 3 Zrotation Yrotation Xrotation
					JOINT LeftArm
					{
						OFFSET 3.37968 1.02893 0.31147
						CHANNELS 3 Zrotation Yrotation Xrotation
						JOINT LeftForeArm
						{
							OFFSET 5.19807 -0.00000 -0.00000
							CHANNELS 3 Zrotation Yrotation Xrotation
							JOINT LeftHand
							{
								OFFSET 3.09370 -0.00000 -0.00000
								CHANNELS 3 Zrotation Yrotation Xrotation
								JOINT LeftFingerBase
								{
									OFFSET 0 0 0
									CHANNELS 3 Zrotation Yrotation Xrotation
									JOINT LeftHandIndex1
									{
										OFFSET 0.67263 -0.00000 -0.00000
										CHANNELS 3 Zrotation Yrotation Xrotation
										End Site
										{
											OFFSET 0.54229 -0.00000 -0.00000
										}
									}
								}
								JOINT LThumb
								{
									OFFSET 0 0 0
									CHANNELS 3 Zrotation Yrotation Xrotation
									End Site
									{
										OFFSET 0.55057 -0.00000 0.55057
									}
								}
							}
						}
					}
				}
				JOINT RightShoulder
				{
					OFFSET 0 0 0
					CHANNELS 3 Zrotation Yrotation Xrotation
					JOINT RightArm
					{
						OFFSET -3.38254 0.96355 -0.16120
						CHANNELS 3 Zrotation Yrotation Xrotation
						JOINT RightForeArm
						{
							OFFSET -5.45222 -0.00000 -0.00000
							CHANNELS 3 Zrotation Yrotation Xrotation
							JOINT RightHand
							{
								OFFSET -3.01284 -0.00000 -0.00000
								CHANNELS 3 Zrotation Yrotation Xrotation
								JOINT RightFingerBase
								{
									OFFSET 0 0 0
									CHANNELS 3 Zrotation Yrotation Xrotation
									JOINT RightHandIndex1
									{
										OFFSET -0.62230 -0.00000 -0.00000
										CHANNELS 3 Zrotation Yrotation Xrotation
										End Site
										{
											OFFSET -0.50171 -0.00000 -0.00000
										}
									}
								}
								JOINT RThumb
								{
									OFFSET 0 0 0
									CHANNELS 3 Zrotation Yrotation Xrotation
									End Site
									{
										OFFSET -0.50937 -0.00000 0.50937
									}
								}
							}
						}
					}
				}
			}
		}
	}
}
MOTION
Frames: 9
Frame Time: 0.0217391
0.00 0.00 0.00 0 0 0 0 0 0 -21 0 0 0 0 0 0 0 0 0 0 0 0 0 0 21 0 0 0 0 0 0 0 0 0 0 0 0 0 0 0 0 0 0 0 0 0 0 -16 0 0 21 0 0 11 0 0 0 -8 0 0 0 0 0 0 0 0 0 0 0 0 0 0 0 0 0 0 0 0 8 0 0 0 0 0 0 0 0 0 0 0 0 0 0 0 0 0
0.00 0.00 0.00 -162.8410 -70.6303 185.2130 0.0000 0.0000 0.0000 -17.0141 -0.4685 -54.0401 5.6063 14.0357 43.3805 0.7212 -9.1454 -15.4957 0.3638 -3.8745 -10.7238 0.0000 0.0000 0.0000 21.1929 -2.9535 -18.5995 -3.9869 -12.1429 36.2395 -0.7070 -6.1736 -19.3088 -1.4314 7.5649 -21.4003 3.2881 4.2654 -3.5026 -1.2674 5.4273 -7.0831 -3.1644 2.4085 -4.9584 -28.6519 -8.5313 9.2414 45.6507 -12.4312 -23.8982 25.6190 -9.0544 -1.9372 0.0000 -0.0000 0.0000 -81.5914 3.8876 48.3415 25.0861 -36.2919 -8.3408 -0.0000 0.0000 -44.7372 16.3247 -14.3177 -4.1427 -7.1250 0.0000 -0.0000 -7.5922 15.1759 5.3882 0.0000 -0.0000 0.0000 89.4529 1.7519 57.8208 -21.6538 32.5836 -6.3984 0.0000 0.0000 19.4055 -7.1411 8.9669 -1.1187 7.1250 -0.0000 -0.0000 14.1471 -21.0487 8.3764
0.00 0.00 0.00 -166.6070 -56.8582 185.4350 0.0000 0.0000 0.0000 -5.3332 -3.2688 -52.2763 5.5736 14.0020 43.2454 -0.1176 10.8555 -13.5309 0.7847 -5.6552 -15.7872 0.0000 0.0000 0.0000 23.9733 -7.8994 -19.6244 -2.4358 -9.7203 28.0756 -2.2376 12.4604 -27.0253 -1.9528 8.7671 -25.0696 8.6784 4.6054 -4.5395 -0.8055 5.7073 -6.6203 -5.5406 2.3518 -3.4568 -28.8609 -5.6172 8.2909 43.2322 -10.0829 -12.0096 23.3660 -7.1462 -0.1712 -0.0000 -0.0000 0.0000 -82.9336 10.0472 50.4364 31.4203 -42.0801 -12.3506 -0.0000 0.0000 -39.5879 9.3043 -16.5519 -2.6722 -7.1250 0.0000 -0.0000 -12.2949 13.4924 9.3083 -0.0000 -0.0000 0.0000 83.3713 -2.4336 62.8311 -54.7101 54.7271 -29.9792 0.0000 0.0000 14.1622 -6.7994 7.5261 -0.8947 7.1250 -0.0000 -0.0000 14.5148 -22.4624 8.1246
0.00 0.00 0.00 -165.3930 -54.8168 183.5690 0.0000 0.0000 0.0000 -2.5180 -3.2766 -51.4388 5.4993 13.9250 42.9377 -0.4031 13.4848 -13.0432 0.5918 -4.9253 -13.6956 0.0000 0.0000 0.0000 25.5698 -9.5845 -21.8911 -2.7938 -10.3536 30.1294 -1.9886 18.1192 -26.5851 -1.4528 7.6188 -21.5620 10.0628 4.1704 -3.8418 -0.1171 5.1867 -6.3641 -5.6506 2.0455 -3.6250 -28.9251 -5.1030 7.2840 42.5361 -9.4650 -9.4554 22.2018 -6.5786 0.2971 -0.0000 -0.0000 0.0000 -84.5121 11.8374 50.4839 37.3642 -46.4284 -16.5034 -0.0000 0.0000 -42.1052 9.5690 -16.9665 -2.8163 -7.1250 0.0000 -0.0000 -12.1132 13.0638 9.2760 -0.0000 -0.0000 0.0000 78.9800 -8.7529 62.6680 -79.2103 59.5555 -50.6698 0.0000 0.0000 10.6430 -8.8186 6.0985 -0.9443 7.1250 -0.0000 -0.0000 13.1901 -23.8249 6.9159
0.00 0.00 0.00 -165.3740 -52.3742 182.7110 0.0000 0.0000 0.0000 -1.3179 -1.8744 -50.5142 5.4674 13.8916 42.8048 -0.5663 14.8796 -12.8880 0.5152 -4.6005 -12.7725 0.0000 0.0000 0.0000 26.1393 -9.6414 -22.6969 -3.0780 -10.8203 31.6763 -1.7618 21.1153 -26.2291 -1.1014 6.6685 -18.7370 10.7267 3.8341 -3.0647 0.1814 4.8323 -6.0936 -5.7616 1.8496 -3.8194 -28.8411 -4.5784 6.4048 41.8555 -8.9170 -7.2221 21.6953 -6.1116 0.7111 -0.0000 -0.0000 0.0000 -84.5331 12.6275 51.2389 41.4593 -48.9111 -19.5321 -0.0000 0.0000 -41.9585 9.5636 -16.7356 -2.7776 -7.1250 0.0000 -0.0000 -12.1206 13.2922 9.2223 -0.0000 -0.0000 0.0000 75.5006 -13.6387 62.5819 -98.0430 59.7541 -66.9597 0.0000 0.0000 9.4271 -10.2560 5.5740 -1.0069 7.1250 -0.0000 -0.0000 12.1854 -24.3197 6.2215
0.00 0.00 0.00 -164.9060 -48.8506 181.2410 0.0000 0.0000 0.0000 0.0664 1.0328 -49.1690 5.5742 14.0026 43.2480 -0.6453 15.6908 -13.3033 0.4884 -4.4811 -12.4342 0.0000 0.0000 0.0000 26.9550 -9.5089 -22.2574 -3.2320 -11.0615 32.4877 -1.4632 24.1330 -25.7915 -0.8320 5.8191 -16.2604 11.8324 3.6819 -2.7141 0.4522 4.6574 -5.6329 -6.0993 1.7621 -3.5147 -28.4003 -3.7921 5.7426 41.1601 -8.0555 -4.8561 21.1781 -5.5234 0.9638 -0.0000 -0.0000 0.0000 -83.4835 12.8981 52.4764 44.2180 -50.3796 -21.6347 -0.0000 0.0000 -40.6108 10.4795 -15.6783 -2.8616 -7.1250 0.0000 -0.0000 -11.5314 14.2721 8.5100 -0.0000 -0.0000 0.0000 72.2034 -18.4056 62.6033 -113.7997 57.7477 -80.4553 0.0000 0.0000 6.7202 -12.6161 3.8019 -0.8503 7.1250 -0.0000 -0.0000 10.5808 -26.0590 4.9366
0.00 0.00 0.00 -165.1160 -45.5123 181.0040 0.0000 0.0000 0.0000 1.3972 2.8121 -48.3043 5.6989 14.1301 43.7609 -0.8158 17.2224 -13.9243 0.3671 -3.8917 -10.7723 0.0000 0.0000 0.0000 27.4493 -7.7562 -22.4197 -3.5317 -11.5096 34.0186 -1.4698 25.0494 -26.2316 -0.6867 5.2981 -14.7608 12.5592 2.7602 -2.8386 0.8221 3.3802 -5.3907 -6.1310 1.1125 -3.4241 -28.2498 -2.7293 4.3729 39.8094 -6.7802 -1.4558 20.3472 -4.5932 1.4400 -0.0000 -0.0000 0.0000 -82.4043 12.7956 52.6845 45.9405 -51.2210 -22.9696 -0.0000 0.0000 -39.8847 12.0312 -14.3700 -3.0278 -7.1250 0.0000 -0.0000 -10.5092 15.4648 7.4547 -0.0000 -0.0000 0.0000 67.8644 -23.6216 61.2591 -129.5948 53.1576 -93.5019 0.0000 0.0000 1.5178 -13.9408 2.0201 -0.5013 7.1250 -0.0000 -0.0000 9.7260 -27.8529 4.1099
0.00 0.00 0.00 -165.3560 -39.8997 180.7540 0.0000 0.0000 0.0000 3.2826 5.3702 -46.2275 6.0338 14.4611 45.1174 -1.0186 19.4407 -16.3737 0.1880 -2.7926 -7.7019 0.0000 0.0000 0.0000 27.5961 -7.0540 -22.1212 -3.7236 -11.7832 34.9694 -0.5824 30.3373 -24.5253 -0.3658 3.8852 -10.7539 13.8814 1.7082 -3.5753 1.2901 1.7829 -5.0161 -6.3732 0.3104 -2.9218 -27.1049 -0.8040 2.9952 36.8442 -4.1786 3.0021 18.4524 -2.9189 1.6290 -0.0000 -0.0000 0.0000 -81.8635 12.4475 51.0314 44.6025 -50.5722 -21.9313 -0.0000 0.0000 -39.7425 13.6848 -15.3294 -3.6831 -7.1250 0.0000 -0.0000 -9.3868 14.3720 6.8574 -0.0000 -0.0000 0.0000 64.0225 -29.3594 55.9791 -144.1460 45.4124 -104.5816 0.0000 -0.0000 -8.9376 -13.7658 -2.1743 0.5325 7.1250 -0.0000 -0.0000 10.2969 -32.1049 3.2962
0.00 0.00 0.00 -166.3980 -29.1785 183.6600 0.0000 0.0000 0.0000 2.0082 14.3856 -48.1147 7.7152 15.9057 51.5303 -0.4619 18.6397 -22.1022 0.1412 -2.4216 -6.6723 0.0000 0.0000 0.0000 24.8527 -5.6415 -23.7103 -4.0742 -12.2585 36.6526 1.6719 40.5197 -22.0470 -0.1265 2.2923 -6.3143 14.1641 -0.5180 -4.6770 2.9328 -1.5334 -4.8993 -4.8373 -1.3751 -2.8272 -25.4167 2.1670 -4.4141 31.4260 0.7908 11.7692 15.6639 0.3630 3.6026 -0.0000 -0.0000 0.0000 -85.0442 11.7172 46.5879 42.9062 -49.7005 -20.6292 -0.0000 0.0000 -39.6066 14.1385 -17.0805 -4.2314 -7.1250 0.0000 -0.0000 -9.0989 12.5621 6.9929 -0.0000 -0.0000 0.0000 61.5305 -34.5214 45.4275 -157.7813 33.2233 -113.2947 0.0000 -0.0000 -18.4487 -11.5554 -6.1930 1.2635 7.1250 -0.0000 -0.0000 12.6930 -36.0465 2.8509
